<svg version="1.1" id="Layer_1" xmlns="http://www.w3.org/2000/svg" xmlns:xlink="http://www.w3.org/1999/xlink" x="0px" y="0px"
	 width="100%" viewBox="0 0 494 505" enable-background="new 0 0 494 505" xml:space="preserve">
<path fill="#000000" opacity="1.000000" stroke="none" 
	d="
M495.000000,271.000000 
	C495.000000,349.316132 495.000000,427.632263 495.000000,505.974182 
	C330.386719,505.974182 165.773422,505.974182 1.080060,505.974182 
	C1.080060,337.757050 1.080060,169.514038 1.080060,1.135520 
	C165.666595,1.135520 330.333282,1.135520 495.000000,1.135520 
	C495.000000,80.102875 495.000000,159.085403 494.693817,238.768967 
	C494.214447,239.279724 494.041229,239.089432 493.741455,238.510315 
	C492.363525,228.009552 491.731262,217.773987 489.741547,207.809494 
	C484.376648,180.941940 475.375153,155.325363 461.296722,131.679825 
	C450.835083,114.108833 438.894958,97.654396 424.532166,82.991478 
	C409.754242,67.904778 393.482117,54.737335 375.462128,43.742294 
	C359.928650,34.264408 343.484955,26.635429 326.201630,21.041964 
	C303.636414,13.739095 280.703827,8.234759 256.677124,8.916009 
	C247.850616,9.166273 238.974518,8.138810 230.170639,8.613798 
	C212.915604,9.544746 196.032730,12.767232 179.427612,17.742033 
	C159.814087,23.618134 140.819611,30.951202 123.564613,41.967693 
	C110.594025,50.248798 97.796516,59.013649 86.001129,68.856415 
	C76.326477,76.929520 67.468010,86.296669 59.647064,96.195763 
	C49.750889,108.721512 40.291595,121.815048 32.475540,135.695129 
	C25.519802,148.047424 20.734179,161.679123 15.578024,174.973892 
	C7.958889,194.619308 4.460107,215.330093 3.283553,236.175430 
	C2.224506,254.938858 2.417474,273.799469 5.796297,292.566284 
	C9.133945,311.104401 13.750653,329.143555 20.936962,346.544647 
	C27.777103,363.107452 36.055744,378.880737 46.258724,393.631622 
	C60.465645,414.171234 77.635742,432.018036 97.161415,447.400482 
	C113.479408,460.255890 131.405014,470.711578 150.602646,478.916840 
	C177.309662,490.331696 205.187485,496.938049 234.073364,498.813019 
	C245.447464,499.551300 257.021759,499.048706 268.371277,497.848083 
	C282.059998,496.399994 295.751373,494.256165 309.182037,491.252899 
	C331.135071,486.343872 351.539368,477.265961 370.987701,465.994537 
	C391.755432,453.958405 410.447479,439.436859 426.865387,421.805847 
	C438.597443,409.206848 449.263763,395.908966 458.195007,381.231323 
	C470.649078,360.764404 480.501617,339.087555 485.845703,315.699402 
	C489.015442,301.827057 490.630188,287.601013 493.056061,273.553375 
	C493.217529,272.618195 494.329895,271.847290 495.000000,271.000000 
z"/>
<path fill="#0857A1" opacity="1.000000" stroke="none" 
	d="
M495.000000,270.600006 
	C494.329895,271.847290 493.217529,272.618195 493.056061,273.553375 
	C490.630188,287.601013 489.015442,301.827057 485.845703,315.699402 
	C480.501617,339.087555 470.649078,360.764404 458.195007,381.231323 
	C449.263763,395.908966 438.597443,409.206848 426.865387,421.805847 
	C410.447479,439.436859 391.755432,453.958405 370.987701,465.994537 
	C351.539368,477.265961 331.135071,486.343872 309.182037,491.252899 
	C295.751373,494.256165 282.059998,496.399994 268.371277,497.848083 
	C257.021759,499.048706 245.447464,499.551300 234.073364,498.813019 
	C205.187485,496.938049 177.309662,490.331696 150.602646,478.916840 
	C131.405014,470.711578 113.479408,460.255890 97.161415,447.400482 
	C77.635742,432.018036 60.465645,414.171234 46.258724,393.631622 
	C36.055744,378.880737 27.777103,363.107452 20.936962,346.544647 
	C13.750653,329.143555 9.133945,311.104401 5.796297,292.566284 
	C2.417474,273.799469 2.224506,254.938858 3.283553,236.175430 
	C4.460107,215.330093 7.958889,194.619308 15.578024,174.973892 
	C20.734179,161.679123 25.519802,148.047424 32.475540,135.695129 
	C40.291595,121.815048 49.750889,108.721512 59.647064,96.195763 
	C67.468010,86.296669 76.326477,76.929520 86.001129,68.856415 
	C97.796516,59.013649 110.594025,50.248798 123.564613,41.967693 
	C140.819611,30.951202 159.814087,23.618134 179.427612,17.742033 
	C196.032730,12.767232 212.915604,9.544746 230.170639,8.613798 
	C238.974518,8.138810 247.850616,9.166273 256.677124,8.916009 
	C280.703827,8.234759 303.636414,13.739095 326.201630,21.041964 
	C343.484955,26.635429 359.928650,34.264408 375.462128,43.742294 
	C393.482117,54.737335 409.754242,67.904778 424.532166,82.991478 
	C438.894958,97.654396 450.835083,114.108833 461.296722,131.679825 
	C475.375153,155.325363 484.376648,180.941940 489.741547,207.809494 
	C491.731262,217.773987 492.363525,228.009552 493.423706,238.805054 
	C493.120514,247.768448 492.943329,256.048676 492.990204,264.327637 
	C492.995270,265.222198 494.298798,266.109406 495.000000,267.000000 
	C495.000000,268.066681 495.000000,269.133331 495.000000,270.600006 
M260.253448,20.354557 
	C251.857788,20.506784 243.462128,20.659014 234.208893,20.952986 
	C226.381973,21.958136 218.537354,22.843100 210.731537,23.991627 
	C189.778915,27.074532 169.662720,33.172760 150.591110,42.263935 
	C132.006180,51.123127 114.131744,61.374832 99.027756,75.609131 
	C87.886864,86.108521 76.396660,96.452736 66.694321,108.212730 
	C52.042629,125.971756 40.675663,145.937454 32.112991,167.465393 
	C23.357288,189.478653 17.653374,212.290939 16.261642,235.796341 
	C15.139602,254.746857 15.390973,273.837891 18.845095,292.784180 
	C22.669432,313.761139 28.674675,333.972961 37.728256,353.210175 
	C49.874828,379.019440 66.197906,401.873718 86.963226,421.578339 
	C98.104286,432.150299 109.630180,442.181305 122.918556,449.906189 
	C133.814133,456.240082 144.651215,462.971802 156.252747,467.724396 
	C173.629242,474.842682 191.424377,481.175903 210.361038,483.177948 
	C221.896637,484.397583 233.394348,486.312164 244.957230,486.821625 
	C252.966599,487.174561 261.098877,485.971588 269.103241,484.912262 
	C280.796021,483.364807 292.582611,482.008423 304.045074,479.346924 
	C327.223999,473.964935 348.740479,464.423096 369.119629,452.041626 
	C395.322693,436.121887 417.681458,415.966461 435.682251,391.341675 
	C451.739410,369.375793 464.007355,345.278412 471.597076,318.934875 
	C476.678253,301.298309 479.954529,283.305511 480.799347,265.079285 
	C481.401825,252.081680 479.926483,238.963577 479.006104,225.925522 
	C477.771881,208.441650 473.352692,191.559143 467.467743,175.171967 
	C456.955963,145.900925 440.991455,119.724243 420.087158,96.705528 
	C406.633545,81.891121 391.847046,68.337296 374.401978,58.418308 
	C359.284973,49.822994 343.678131,41.902702 327.701111,35.052376 
	C306.509003,25.966005 283.704193,23.164837 260.253448,20.354557 
z"/>
<path fill="#7294B8" opacity="1.000000" stroke="none" 
	d="
M495.000000,266.531342 
	C494.298798,266.109406 492.995270,265.222198 492.990204,264.327637 
	C492.943329,256.048676 493.120514,247.768448 493.550293,239.193863 
	C494.041229,239.089432 494.214447,239.279724 494.693817,239.235001 
	C495.000000,248.020889 495.000000,257.041779 495.000000,266.531342 
z"/>
<path fill="#000000" opacity="1.000000" stroke="none" 
	d="
M260.931915,20.802437 
	C283.704193,23.164837 306.509003,25.966005 327.701111,35.052376 
	C343.678131,41.902702 359.284973,49.822994 374.401978,58.418308 
	C391.847046,68.337296 406.633545,81.891121 420.087158,96.705528 
	C440.991455,119.724243 456.955963,145.900925 467.467743,175.171967 
	C473.352692,191.559143 477.771881,208.441650 479.006104,225.925522 
	C479.926483,238.963577 481.401825,252.081680 480.799347,265.079285 
	C479.954529,283.305511 476.678253,301.298309 471.597076,318.934875 
	C464.007355,345.278412 451.739410,369.375793 435.682251,391.341675 
	C417.681458,415.966461 395.322693,436.121887 369.119629,452.041626 
	C348.740479,464.423096 327.223999,473.964935 304.045074,479.346924 
	C292.582611,482.008423 280.796021,483.364807 269.103241,484.912262 
	C261.098877,485.971588 252.966599,487.174561 244.957230,486.821625 
	C233.394348,486.312164 221.896637,484.397583 210.361038,483.177948 
	C191.424377,481.175903 173.629242,474.842682 156.252747,467.724396 
	C144.651215,462.971802 133.814133,456.240082 122.918556,449.906189 
	C109.630180,442.181305 98.104286,432.150299 86.963226,421.578339 
	C66.197906,401.873718 49.874828,379.019440 37.728256,353.210175 
	C28.674675,333.972961 22.669432,313.761139 18.845095,292.784180 
	C15.390973,273.837891 15.139602,254.746857 16.261642,235.796341 
	C17.653374,212.290939 23.357288,189.478653 32.112991,167.465393 
	C40.675663,145.937454 52.042629,125.971756 66.694321,108.212730 
	C76.396660,96.452736 87.886864,86.108521 99.027756,75.609131 
	C114.131744,61.374832 132.006180,51.123127 150.591110,42.263935 
	C169.662720,33.172760 189.778915,27.074532 210.731537,23.991627 
	C218.537354,22.843100 226.381973,21.958136 235.101303,20.932821 
	C244.306442,20.875917 252.619186,20.839176 260.931915,20.802437 
M330.002594,142.652145 
	C330.304596,143.113388 330.606598,143.574615 331.012054,144.837143 
	C332.263916,145.558182 333.592560,146.991547 334.753174,146.866409 
	C338.204590,146.494263 340.724579,147.780945 343.221497,150.765884 
	C345.109283,151.825516 346.997101,152.885147 347.961670,153.976517 
	C345.188385,153.987106 342.409424,153.889038 339.643127,154.033493 
	C335.386047,154.255783 331.137695,154.644516 325.978058,154.950623 
	C322.429382,154.950623 318.880707,154.950623 315.091827,154.950623 
	C315.091827,153.302444 315.091827,152.172836 315.799255,150.623260 
	C315.908844,148.097336 316.018463,145.571396 316.792328,142.773697 
	C322.925507,139.648941 320.683838,132.537186 323.757843,127.803101 
	C325.106171,125.726639 323.879181,121.977921 323.979034,118.219292 
	C322.666016,115.105858 321.353027,111.992416 320.006989,108.173515 
	C319.002777,107.508217 317.998596,106.842926 316.350220,105.862335 
	C315.909790,104.849144 315.469360,103.835953 314.713745,102.280624 
	C313.199249,100.856194 311.684723,99.431770 309.722046,97.294060 
	C305.983459,97.530434 302.244995,97.970200 298.506226,97.972733 
	C240.764221,98.011780 183.022156,97.986099 125.280144,98.033669 
	C123.782166,98.034897 122.284737,98.693039 120.148460,99.038780 
	C119.158279,100.026466 118.168106,101.014160 117.054726,102.936752 
	C117.033958,184.011337 117.008255,265.085938 117.034607,346.160522 
	C117.035042,347.516968 117.667572,348.873260 118.213341,350.707153 
	C118.755089,351.120667 119.296829,351.534180 120.217453,352.679108 
	C124.866776,352.790436 129.515747,352.977142 134.165482,352.998718 
	C147.121170,353.058929 160.077164,353.050629 173.027740,352.973877 
	C173.027740,352.973877 172.932129,352.972046 172.989014,353.913910 
	C172.994537,369.502838 172.972107,385.091949 173.050537,400.680511 
	C173.058060,402.175079 173.693497,403.666534 174.084244,405.904968 
	C176.096680,406.929871 178.084885,408.780640 180.125626,408.840546 
	C190.430145,409.142792 200.748306,408.978546 211.061691,408.978302 
	C262.493103,408.977051 313.924561,408.950470 365.355865,409.027893 
	C369.060638,409.033478 371.067993,407.865448 371.797333,403.607300 
	C371.868561,385.142151 371.987732,366.677032 372.002228,348.211853 
	C372.049133,288.471893 372.057587,228.731949 372.818298,168.664825 
	C381.869507,166.520767 386.374481,167.562668 390.612396,172.757187 
	C388.781616,174.169281 386.950470,175.581665 384.829071,177.689819 
	C385.218018,180.243896 385.284698,182.902771 386.072845,185.327057 
	C387.202484,188.801651 389.642914,190.042053 393.897552,188.005615 
	C395.892578,188.353622 397.887634,188.701645 400.226440,189.718124 
	C404.887329,192.735947 407.028046,190.988129 411.630371,183.683609 
	C414.237549,179.545685 413.176239,177.924484 407.866272,176.374344 
	C406.955566,175.894470 406.044830,175.414612 405.042603,174.050293 
	C405.064636,171.381958 405.086700,168.713623 405.795776,165.640656 
	C406.186981,163.409851 406.300873,161.083282 407.030914,158.969513 
	C408.294769,155.310303 407.102631,152.815323 404.005219,150.116302 
	C403.349579,147.774994 402.693939,145.433670 402.728119,142.754547 
	C403.444122,140.634781 404.311096,138.552017 404.841919,136.386856 
	C405.711304,132.840576 403.427246,130.187103 399.720123,129.981567 
	C397.143555,129.838715 394.580963,129.444214 391.177124,128.992035 
	C389.475403,128.949127 387.773651,128.906235 385.753174,128.225067 
	C383.839813,127.541855 381.926422,126.858643 379.190216,126.019363 
	C375.789215,126.736778 372.388245,127.454201 368.111816,128.019684 
	C366.619995,128.011993 365.113434,128.136841 363.639069,127.972481 
	C358.644165,127.415680 355.878021,125.996483 357.259186,120.519821 
	C358.600677,120.010506 359.867889,119.529381 361.922607,119.017021 
	C367.683289,118.149300 369.608582,115.642273 368.991516,109.492401 
	C368.515381,104.747169 364.731232,106.279427 361.964050,106.022240 
	C360.337067,105.871025 358.691071,105.924416 356.704865,105.167580 
	C353.882629,104.867760 350.890472,103.812973 348.268524,104.403061 
	C338.598907,106.579254 336.386444,105.481720 333.924713,96.290108 
	C333.692169,95.421883 332.510071,94.807983 331.768799,94.076019 
	C331.183685,94.963928 329.993347,95.946739 330.115173,96.723793 
	C330.739624,100.706299 330.001923,104.403641 329.115601,108.296417 
	C327.515778,115.323097 330.334198,122.959465 326.453064,129.785919 
	C326.336548,129.990891 326.912537,130.589600 327.258362,131.766876 
	C328.136688,135.192703 329.015015,138.618515 330.002594,142.652145 
z"/>
<path fill="#4E8ABD" opacity="1.000000" stroke="none" 
	d="
M260.592682,20.578497 
	C252.619186,20.839176 244.306442,20.875917 235.530090,20.861950 
	C243.462128,20.659014 251.857788,20.506784 260.592682,20.578497 
z"/>
<path fill="#0E59A2" opacity="1.000000" stroke="none" 
	d="
M371.020020,404.002655 
	C371.067993,407.865448 369.060638,409.033478 365.355865,409.027893 
	C313.924561,408.950470 262.493103,408.977051 211.061691,408.978302 
	C200.748306,408.978546 190.430145,409.142792 180.125626,408.840546 
	C178.084885,408.780640 176.096680,406.929871 174.074829,405.051453 
	C174.039230,388.990631 174.048950,373.783142 173.940674,358.576447 
	C173.927353,356.706024 173.283676,354.840057 172.932129,352.972046 
	C172.932129,352.972046 173.027740,352.973877 172.748993,352.705017 
	C170.668259,352.294373 168.866669,352.035156 167.064209,352.029114 
	C151.322418,351.976288 135.580475,351.968719 119.838577,351.947723 
	C119.296829,351.534180 118.755089,351.120667 118.136734,349.982239 
	C118.038040,269.107300 118.022644,188.957291 117.959747,108.807312 
	C117.957970,106.538620 117.449905,104.270325 117.177933,102.001846 
	C118.168106,101.014160 119.158279,100.026466 120.952789,99.065536 
	C182.496750,99.059669 243.236374,99.036736 303.975922,98.953033 
	C306.041138,98.950188 308.105469,98.336372 310.170227,98.007347 
	C311.684723,99.431770 313.199249,100.856194 314.581360,102.714531 
	C314.693542,104.435722 314.938049,105.723007 315.105988,107.464561 
	C315.066071,111.608055 315.102753,115.297287 315.067993,119.238899 
	C315.048737,119.658127 315.100861,119.824966 315.076569,120.437820 
	C315.052460,123.595070 315.104797,126.306305 315.059418,129.410187 
	C315.050903,130.873001 315.140137,131.943161 315.138916,133.458557 
	C315.075836,136.932419 315.103210,139.961075 315.036926,143.429199 
	C314.992767,146.260193 315.042297,148.651718 315.091827,151.043243 
	C315.091827,152.172836 315.091827,153.302444 315.091827,154.950623 
	C318.880707,154.950623 322.429382,154.950623 326.904236,155.018448 
	C335.895355,155.000275 343.960297,154.914261 352.380859,154.862274 
	C357.489380,154.931000 362.242279,154.965714 367.152588,155.251663 
	C367.862579,155.692749 368.415161,155.882614 369.128754,156.323090 
	C369.852570,157.387329 370.415405,158.200958 370.973633,159.300446 
	C371.064728,159.751053 371.160492,159.915817 371.269470,160.518188 
	C371.333099,163.563980 371.383545,166.172195 371.282471,169.244247 
	C371.088470,170.372391 371.008698,171.036713 371.008698,171.701019 
	C371.008636,249.134903 371.014496,326.568787 371.020020,404.002655 
M128.345551,111.682495 
	C128.230621,113.167023 128.015442,114.651535 128.015106,116.136086 
	C127.998604,188.763229 127.995705,261.390381 128.032196,334.017487 
	C128.032990,335.621735 128.506256,337.225677 128.930984,339.498840 
	C133.130737,340.189362 137.317245,341.349854 141.533112,341.468597 
	C149.327301,341.688141 157.188766,340.685272 164.929993,341.318634 
	C174.239227,342.080322 174.893799,341.982544 174.893936,332.453094 
	C174.894791,276.829193 174.893616,221.205276 174.894943,165.581375 
	C174.895157,156.952698 175.919861,155.944077 184.751541,155.942963 
	C222.222733,155.938202 259.693909,155.950348 297.165100,155.930435 
	C303.562592,155.927048 303.878326,155.511368 303.936249,149.108765 
	C304.044525,137.132599 304.241547,125.156876 304.238770,113.181007 
	C304.238586,112.454536 302.810974,111.728401 301.533875,110.906006 
	C301.368500,110.851265 301.203156,110.796516 300.999359,110.336227 
	C300.648407,110.471703 300.297485,110.607178 299.023743,110.867462 
	C284.068573,110.878014 269.113342,110.908440 254.158188,110.895241 
	C214.778320,110.860481 175.398438,110.806770 135.817093,110.489090 
	C135.539795,110.578789 135.262482,110.668488 134.147003,110.872643 
	C132.737366,110.904892 131.327744,110.937141 129.362289,110.929222 
	C129.177994,110.953018 128.993698,110.976807 128.345551,111.682495 
M254.500305,167.463882 
	C231.871277,167.463882 209.242233,167.463882 186.346466,167.463882 
	C186.346466,244.079529 186.346466,320.102966 186.346466,396.275330 
	C243.945145,396.275330 301.165466,396.275330 358.601898,396.275330 
	C358.601898,319.968201 358.601898,244.048019 358.601898,167.462830 
	C324.069611,167.462830 289.784973,167.462830 254.500305,167.463882 
z"/>
<path fill="#D6E2EF" opacity="1.000000" stroke="none" 
	d="
M370.978241,159.014603 
	C370.415405,158.200958 369.852570,157.387329 368.983154,156.052063 
	C368.116119,155.353745 367.555634,155.177078 366.995178,155.000427 
	C362.242279,154.965714 357.489380,154.931000 352.188416,154.652405 
	C351.096619,154.256409 350.552887,154.104279 350.294617,153.699249 
	C353.899017,153.189346 355.611725,151.733871 355.051422,148.090820 
	C354.754425,146.159683 355.006073,144.144165 355.362000,142.193146 
	C357.808502,145.910522 360.574310,149.029968 365.162750,147.789368 
	C366.755524,147.358719 367.718445,144.598404 368.975006,143.369354 
	C369.035461,155.058685 370.331055,156.134232 380.225861,153.119476 
	C380.686157,153.435486 380.875427,153.683945 380.836365,154.356583 
	C380.451752,156.011993 380.084015,157.288055 380.034729,158.576309 
	C379.898773,162.129181 379.687286,165.810165 384.842682,165.977005 
	C390.391479,166.156540 391.988281,164.600479 391.998169,158.941681 
	C392.000458,157.624954 391.996338,156.308212 392.369385,154.827179 
	C395.143829,154.439224 397.637390,154.538010 399.911713,153.879456 
	C401.446960,153.434891 402.673096,151.922668 404.037506,150.888031 
	C407.102631,152.815323 408.294769,155.310303 407.030914,158.969513 
	C406.300873,161.083282 406.186981,163.409851 404.984619,165.832153 
	C390.248962,166.058716 392.170380,164.556122 391.998779,177.001862 
	C392.000000,177.000000 392.003662,176.997559 391.572571,177.000153 
	C389.134094,176.999832 387.126709,176.996933 385.119324,176.994049 
	C386.950470,175.581665 388.781616,174.169281 390.612396,172.757187 
	C386.374481,167.562668 381.869507,166.520767 372.309814,168.707993 
	C371.801300,168.751160 371.433960,168.780411 371.433960,168.780411 
	C371.383545,166.172195 371.333099,163.563980 371.381958,160.382736 
	C371.313568,159.544678 371.145905,159.279648 370.978241,159.014603 
z"/>
<path fill="#3B76AF" opacity="1.000000" stroke="none" 
	d="
M117.116325,102.469299 
	C117.449905,104.270325 117.957970,106.538620 117.959747,108.807312 
	C118.022644,188.957291 118.038040,269.107300 118.032639,349.743469 
	C117.667572,348.873260 117.035042,347.516968 117.034607,346.160522 
	C117.008255,265.085938 117.033958,184.011337 117.116325,102.469299 
z"/>
<path fill="#82ADCF" opacity="1.000000" stroke="none" 
	d="
M371.282471,169.244247 
	C371.433960,168.780411 371.801300,168.751160 371.941071,168.871582 
	C372.057587,228.731949 372.049133,288.471893 372.002228,348.211853 
	C371.987732,366.677032 371.868561,385.142151 371.408691,403.804993 
	C371.014496,326.568787 371.008636,249.134903 371.008698,171.701019 
	C371.008698,171.036713 371.088470,170.372391 371.282471,169.244247 
z"/>
<path fill="#D2DEEA" opacity="1.000000" stroke="none" 
	d="
M327.165680,131.004745 
	C326.912537,130.589600 326.336548,129.990891 326.453064,129.785919 
	C330.334198,122.959465 327.515778,115.323097 329.115601,108.296417 
	C330.001923,104.403641 330.739624,100.706299 330.115173,96.723793 
	C329.993347,95.946739 331.183685,94.963928 331.768799,94.076019 
	C332.510071,94.807983 333.692169,95.421883 333.924713,96.290108 
	C336.386444,105.481720 338.598907,106.579254 348.268524,104.403061 
	C350.890472,103.812973 353.882629,104.867760 356.748352,105.799789 
	C356.195770,106.954933 355.599731,107.477867 354.625916,107.834793 
	C350.501221,107.445747 346.754272,107.222717 342.545441,107.000290 
	C331.991516,107.007828 331.991516,107.007828 332.000641,117.028435 
	C332.001251,117.679794 332.001831,118.331146 332.001770,119.431229 
	C332.335571,123.258522 332.669983,126.637108 332.880859,130.224701 
	C332.548920,130.692581 332.289886,130.882294 331.578857,131.002625 
	C329.840271,131.003189 328.502991,131.003967 327.165680,131.004745 
z"/>
<path fill="#5D8CB8" opacity="1.000000" stroke="none" 
	d="
M309.946136,97.650703 
	C308.105469,98.336372 306.041138,98.950188 303.975922,98.953033 
	C243.236374,99.036736 182.496750,99.059669 121.272087,99.068558 
	C122.284737,98.693039 123.782166,98.034897 125.280144,98.033669 
	C183.022156,97.986099 240.764221,98.011780 298.506226,97.972733 
	C302.244995,97.970200 305.983459,97.530434 309.946136,97.650703 
z"/>
<path fill="#CAD6E2" opacity="1.000000" stroke="none" 
	d="
M355.003662,108.000809 
	C355.599731,107.477867 356.195770,106.954933 356.922729,106.158890 
	C358.691071,105.924416 360.337067,105.871025 361.964050,106.022240 
	C364.731232,106.279427 368.515381,104.747169 368.991516,109.492401 
	C369.608582,115.642273 367.683289,118.149300 361.101440,119.014801 
	C358.854401,119.004890 357.428497,118.997200 355.972046,118.697739 
	C355.625427,117.937477 355.309387,117.468987 354.994324,116.550491 
	C354.998077,113.400597 355.000854,110.700699 355.003662,108.000809 
z"/>
<path fill="#D7E4EF" opacity="1.000000" stroke="none" 
	d="
M380.013062,126.175430 
	C381.926422,126.858643 383.839813,127.541855 385.669525,128.825226 
	C381.122345,130.062454 379.464935,132.701172 379.975250,137.055130 
	C380.165924,138.682205 380.001373,140.350891 379.999390,142.000305 
	C380.000000,142.000000 380.001190,141.999390 379.543884,142.001648 
	C376.021942,141.991043 372.957275,141.978180 369.938477,141.649689 
	C369.638397,140.598572 369.292480,139.863098 368.958221,138.669540 
	C368.981506,135.472733 368.993103,132.734024 369.002350,129.997650 
	C369.000000,130.000000 368.995117,130.004532 369.453613,130.004944 
	C372.067047,130.003906 374.230957,129.877274 376.374695,130.031616 
	C379.286896,130.241272 380.269684,128.846573 380.013062,126.175430 
z"/>
<path fill="#D7E4EF" opacity="1.000000" stroke="none" 
	d="
M392.012115,129.162125 
	C394.580963,129.444214 397.143555,129.838715 399.720123,129.981567 
	C403.427246,130.187103 405.711304,132.840576 404.841919,136.386856 
	C404.311096,138.552017 403.444122,140.634781 402.091187,142.634277 
	C398.301270,142.344101 395.148254,142.174179 391.996399,141.542557 
	C392.002380,137.107941 392.007263,133.135025 392.012115,129.162125 
z"/>
<path fill="#CAD6E2" opacity="1.000000" stroke="none" 
	d="
M391.594604,129.077087 
	C392.007263,133.135025 392.002380,137.107941 391.998779,141.540268 
	C392.000000,141.999695 392.004242,141.995453 391.543152,141.997818 
	C387.387665,142.000320 383.693207,142.000473 379.998779,142.000610 
	C380.001373,140.350891 380.165924,138.682205 379.975250,137.055130 
	C379.464935,132.701172 381.122345,130.062454 385.828918,129.144348 
	C387.773651,128.906235 389.475403,128.949127 391.594604,129.077087 
z"/>
<path fill="#C9D5E1" opacity="1.000000" stroke="none" 
	d="
M391.997559,177.003723 
	C392.170380,164.556122 390.248962,166.058716 404.641113,166.034470 
	C405.086700,168.713623 405.064636,171.381958 404.834656,174.671844 
	C404.416199,175.863342 404.205658,176.433273 403.997559,177.001770 
	C404.000000,177.000305 404.003662,176.994934 403.542786,176.997055 
	C399.387115,177.000687 395.692352,177.002197 391.997559,177.003723 
z"/>
<path fill="#D8E3EF" opacity="1.000000" stroke="none" 
	d="
M391.998779,177.001862 
	C395.692352,177.002197 399.387115,177.000687 403.540710,177.458923 
	C403.998413,180.200455 403.845978,182.494705 404.032806,184.760986 
	C404.292084,187.906326 403.092468,189.385910 399.882660,189.049652 
	C397.887634,188.701645 395.892578,188.353622 393.212006,187.736908 
	C392.352173,183.977997 392.177917,180.487778 392.003662,176.997559 
	C392.003662,176.997559 392.000000,177.000000 391.998779,177.001862 
z"/>
<path fill="#CAD6E2" opacity="1.000000" stroke="none" 
	d="
M391.997620,142.001984 
	C395.148254,142.174179 398.301270,142.344101 401.746277,142.803192 
	C402.693939,145.433670 403.349579,147.774994 404.021362,150.502167 
	C402.673096,151.922668 401.446960,153.434891 399.911713,153.879456 
	C397.637390,154.538010 395.143829,154.439224 392.250183,154.619232 
	C391.555695,154.316452 391.303436,154.124588 391.168304,153.623383 
	C391.559143,149.496338 391.781708,145.745895 392.004272,141.995453 
	C392.004242,141.995453 392.000000,141.999695 391.997620,142.001984 
z"/>
<path fill="#CAD6E2" opacity="1.000000" stroke="none" 
	d="
M355.010071,142.166748 
	C355.006073,144.144165 354.754425,146.159683 355.051422,148.090820 
	C355.611725,151.733871 353.899017,153.189346 350.013458,153.704453 
	C349.259552,153.956619 349.072235,153.950699 348.884888,153.944778 
	C346.997101,152.885147 345.109283,151.825516 343.103210,150.037842 
	C343.702728,147.192291 344.420563,145.074799 345.483704,143.127106 
	C348.889343,142.920181 351.949707,142.543472 355.010071,142.166748 
z"/>
<path fill="#CBD8E3" opacity="1.000000" stroke="none" 
	d="
M315.130585,142.989716 
	C315.103210,139.961075 315.075836,136.932419 315.493042,133.455170 
	C316.958008,132.338852 317.978394,131.671143 319.060852,130.595123 
	C319.415771,126.457291 319.708618,122.727730 320.000732,118.999084 
	C320.000000,119.000000 319.998505,119.001831 320.380829,118.997498 
	C321.782623,118.991623 322.802094,118.990074 323.821564,118.988525 
	C323.879181,121.977921 325.106171,125.726639 323.757843,127.803101 
	C320.683838,132.537186 322.925507,139.648941 316.211060,142.891357 
	C315.629761,143.009033 315.130585,142.989716 315.130585,142.989716 
z"/>
<path fill="#CAD7E2" opacity="1.000000" stroke="none" 
	d="
M400.054565,189.383881 
	C403.092468,189.385910 404.292084,187.906326 404.032806,184.760986 
	C403.845978,182.494705 403.998413,180.200455 404.001587,177.456802 
	C404.003662,176.994934 404.000000,177.000305 404.409485,177.001862 
	C405.916870,176.989594 407.014709,176.975754 408.112579,176.961914 
	C413.176239,177.924484 414.237549,179.545685 411.630371,183.683609 
	C407.028046,190.988129 404.887329,192.735947 400.054565,189.383881 
z"/>
<path fill="#C9D4E3" opacity="1.000000" stroke="none" 
	d="
M391.572571,177.000153 
	C392.177917,180.487778 392.352173,183.977997 392.819366,187.762634 
	C389.642914,190.042053 387.202484,188.801651 386.072845,185.327057 
	C385.284698,182.902771 385.218018,180.243896 384.974182,177.341919 
	C387.126709,176.996933 389.134094,176.999832 391.572571,177.000153 
z"/>
<path fill="#D8E4EF" opacity="1.000000" stroke="none" 
	d="
M345.138397,142.957306 
	C344.420563,145.074799 343.702728,147.192291 342.972656,149.715424 
	C340.724579,147.780945 338.204590,146.494263 334.753174,146.866409 
	C333.592560,146.991547 332.263916,145.558182 331.231750,144.308350 
	C331.967621,143.186783 332.483826,142.594009 333.445343,142.001678 
	C337.202423,141.345734 340.514130,140.689377 343.902649,140.357315 
	C344.365753,141.440186 344.752075,142.198746 345.138397,142.957306 
z"/>
<path fill="#CBD8E3" opacity="1.000000" stroke="none" 
	d="
M315.139404,118.986511 
	C315.102753,115.297287 315.066071,111.608055 315.365173,107.441360 
	C316.132080,106.701805 316.563232,106.439720 316.994385,106.177643 
	C317.998596,106.842926 319.002777,107.508217 320.011047,108.987976 
	C320.009552,112.868896 320.004028,115.935364 319.998505,119.001831 
	C319.998505,119.001831 320.000000,119.000000 319.602448,118.998657 
	C318.142975,119.000374 317.081055,119.003418 315.799255,118.999222 
	C315.579376,118.991974 315.139435,118.986511 315.139404,118.986511 
z"/>
<path fill="#6498C8" opacity="1.000000" stroke="none" 
	d="
M120.028015,352.313416 
	C135.580475,351.968719 151.322418,351.976288 167.064209,352.029114 
	C168.866669,352.035156 170.668259,352.294373 172.751648,352.752808 
	C160.077164,353.050629 147.121170,353.058929 134.165482,352.998718 
	C129.515747,352.977142 124.866776,352.790436 120.028015,352.313416 
z"/>
<path fill="#D8E3EF" opacity="1.000000" stroke="none" 
	d="
M356.002594,118.989502 
	C357.428497,118.997200 358.854401,119.004890 360.707703,119.030418 
	C359.867889,119.529381 358.600677,120.010506 357.259186,120.519821 
	C355.878021,125.996483 358.644165,127.415680 363.639069,127.972481 
	C365.113434,128.136841 366.619995,128.011993 368.551331,128.401108 
	C368.992249,129.189865 368.993683,129.597198 368.995117,130.004532 
	C368.995117,130.004532 369.000000,130.000000 368.537140,130.000183 
	C363.714264,130.001785 359.354279,130.003204 354.995453,129.550003 
	C354.998993,126.063690 355.001343,123.032005 355.213867,119.879135 
	C355.685791,119.553658 355.878632,119.297508 356.002594,118.989502 
z"/>
<path fill="#5990C6" opacity="1.000000" stroke="none" 
	d="
M172.960571,353.442993 
	C173.283676,354.840057 173.927353,356.706024 173.940674,358.576447 
	C174.048950,373.783142 174.039230,388.990631 174.051437,404.678650 
	C173.693497,403.666534 173.058060,402.175079 173.050537,400.680511 
	C172.972107,385.091949 172.994537,369.502838 172.960571,353.442993 
z"/>
<path fill="#D8E4F0" opacity="1.000000" stroke="none" 
	d="
M327.212036,131.385803 
	C328.502991,131.003967 329.840271,131.003189 331.582214,131.456329 
	C331.986389,134.939499 331.985992,137.968750 331.719513,141.120026 
	C330.933411,141.509491 330.413391,141.776917 329.893341,142.044342 
	C329.015015,138.618515 328.136688,135.192703 327.212036,131.385803 
z"/>
<path fill="#CAD6E2" opacity="1.000000" stroke="none" 
	d="
M369.453613,130.004944 
	C368.993683,129.597198 368.992249,129.189865 368.989014,128.477081 
	C372.388245,127.454201 375.789215,126.736778 379.601624,126.097397 
	C380.269684,128.846573 379.286896,130.241272 376.374695,130.031616 
	C374.230957,129.877274 372.067047,130.003906 369.453613,130.004944 
z"/>
<path fill="#D7E5F0" opacity="1.000000" stroke="none" 
	d="
M320.380829,118.997498 
	C320.004028,115.935364 320.009552,112.868896 320.027527,109.340706 
	C321.353027,111.992416 322.666016,115.105858 323.900299,118.603905 
	C322.802094,118.990074 321.782623,118.991623 320.380829,118.997498 
z"/>
<path fill="#9CBFDF" opacity="1.000000" stroke="none" 
	d="
M348.423279,153.960648 
	C349.072235,153.950699 349.259552,153.956619 349.728027,153.957336 
	C350.552887,154.104279 351.096619,154.256409 351.832764,154.618393 
	C343.960297,154.914261 335.895355,155.000275 327.358032,155.024460 
	C331.137695,154.644516 335.386047,154.255783 339.643127,154.033493 
	C342.409424,153.889038 345.188385,153.987106 348.423279,153.960648 
z"/>
<path fill="#C2D3E6" opacity="1.000000" stroke="none" 
	d="
M315.036926,143.429199 
	C315.130585,142.989716 315.629761,143.009033 315.878906,143.027252 
	C316.018463,145.571396 315.908844,148.097336 315.445557,150.833252 
	C315.042297,148.651718 314.992767,146.260193 315.036926,143.429199 
z"/>
<path fill="#D2DEEA" opacity="1.000000" stroke="none" 
	d="
M329.947968,142.348236 
	C330.413391,141.776917 330.933411,141.509491 331.932159,141.239349 
	C332.676239,141.438339 332.872620,141.693207 333.000000,142.001221 
	C332.483826,142.594009 331.967621,143.186783 331.179993,143.907715 
	C330.606598,143.574615 330.304596,143.113388 329.947968,142.348236 
z"/>
<path fill="#C2D3E6" opacity="1.000000" stroke="none" 
	d="
M316.672302,106.019989 
	C316.563232,106.439720 316.132080,106.701805 315.441772,106.987091 
	C314.938049,105.723007 314.693542,104.435722 314.738953,102.985603 
	C315.469360,103.835953 315.909790,104.849144 316.672302,106.019989 
z"/>
<path fill="#D6E2EF" opacity="1.000000" stroke="none" 
	d="
M407.989441,176.668121 
	C407.014709,176.975754 405.916870,176.989594 404.407043,177.003326 
	C404.205658,176.433273 404.416199,175.863342 404.880432,175.114075 
	C406.044830,175.414612 406.955566,175.894470 407.989441,176.668121 
z"/>
<path fill="#FAFCFD" opacity="1.000000" stroke="none" 
	d="
M255.000320,167.463348 
	C289.784973,167.462830 324.069611,167.462830 358.601898,167.462830 
	C358.601898,244.048019 358.601898,319.968201 358.601898,396.275330 
	C301.165466,396.275330 243.945145,396.275330 186.346466,396.275330 
	C186.346466,320.102966 186.346466,244.079529 186.346466,167.463882 
	C209.242233,167.463882 231.871277,167.463882 255.000320,167.463348 
M331.622009,221.018326 
	C331.815094,220.706467 332.008209,220.394608 332.106049,220.082764 
	C332.106049,220.082764 332.131134,220.174637 332.809448,219.855270 
	C332.837708,218.911133 332.865936,217.966980 333.051331,216.582703 
	C333.051331,216.582703 333.035797,216.115570 333.489990,215.899826 
	C333.348389,215.565842 333.206787,215.231857 333.047852,214.971848 
	C333.047852,214.971848 333.123688,214.976151 333.109100,214.325668 
	C332.773804,213.831100 332.438477,213.336533 332.081848,212.932358 
	C332.081848,212.932358 332.174713,212.933853 331.999481,212.362167 
	C331.654999,212.239975 331.310516,212.117783 330.716644,211.769791 
	C330.716644,211.769791 330.402679,211.890625 329.818115,211.177750 
	C328.846008,211.007156 327.874023,210.688156 326.901764,210.687408 
	C290.238953,210.659286 253.576080,210.647522 216.913345,210.708405 
	C215.545242,210.710678 214.178391,211.458633 212.899414,211.857773 
	C212.899414,211.857773 212.864120,211.776657 212.085556,211.882889 
	C208.664719,214.906754 208.488266,218.012360 211.899933,221.107224 
	C211.899933,221.107224 211.796951,221.149841 212.139771,221.801437 
	C213.037140,222.117859 213.934509,222.434296 215.617599,223.053848 
	C252.281647,223.074127 288.945709,223.103241 325.609711,223.081726 
	C327.042694,223.080872 328.475433,222.595459 330.564148,222.215790 
	C330.773712,221.833099 330.983276,221.450409 331.068756,221.061417 
	C331.068756,221.061417 331.079742,221.185181 331.622009,221.018326 
M210.733551,345.161987 
	C208.415024,351.562073 210.799484,355.052307 217.691498,355.058746 
	C253.689545,355.092255 289.687653,355.083923 325.685730,355.064453 
	C331.223328,355.061432 334.006866,352.848602 333.958374,348.681824 
	C333.909912,344.517609 331.202759,342.435120 325.568970,342.431793 
	C289.737549,342.410614 253.906006,342.379883 218.075058,342.509735 
	C215.775269,342.518066 213.480270,343.844025 210.733551,345.161987 
M251.499985,311.120026 
	C273.814575,311.120148 296.129181,311.125488 318.443787,311.114716 
	C321.772736,311.113129 325.139282,311.331635 328.420349,310.913727 
	C331.976532,310.460754 334.117249,308.170135 333.882996,304.387878 
	C333.666382,300.890839 331.588409,298.986084 328.116577,298.655823 
	C327.125641,298.561584 326.119873,298.614838 325.120911,298.614990 
	C289.817230,298.620361 254.513550,298.624695 219.209869,298.643066 
	C217.548553,298.643921 215.472519,298.175049 214.320801,298.976166 
	C212.480011,300.256561 210.236954,302.322083 210.053513,304.236725 
	C209.871460,306.136597 211.616302,308.756989 213.283813,310.126678 
	C214.590057,311.199585 217.066971,311.072296 219.026718,311.086975 
	C229.517288,311.165710 240.008789,311.121674 251.499985,311.120026 
M323.223755,267.271637 
	C325.049835,267.213715 326.918915,267.384186 328.692902,267.049896 
	C332.273193,266.375214 334.818726,263.923309 333.849335,260.438385 
	C333.195038,258.086182 330.472748,256.190155 328.394287,254.420334 
	C327.705658,253.833954 326.140350,254.253311 324.975861,254.253067 
	C289.514832,254.245850 254.053802,254.242859 218.592773,254.244232 
	C217.428543,254.244278 216.219986,254.104492 215.108322,254.360687 
	C211.661179,255.155060 209.355316,257.282532 209.495224,260.941254 
	C209.631439,264.503876 211.704895,266.799164 215.409821,267.214050 
	C216.725891,267.361481 218.070038,267.267944 219.401367,267.268005 
	C253.697021,267.270233 287.992676,267.270294 323.223755,267.271637 
z"/>
<path fill="#FDFEFE" opacity="1.000000" stroke="none" 
	d="
M136.018570,110.760605 
	C175.398438,110.806770 214.778320,110.860481 254.158188,110.895241 
	C269.113342,110.908440 284.068573,110.878014 299.758057,110.887543 
	C300.674164,110.852341 300.855988,110.797058 301.037811,110.741776 
	C301.203156,110.796516 301.368500,110.851265 301.832275,111.420326 
	C302.130707,126.048492 302.130707,140.162338 302.130707,154.663849 
	C299.673889,154.663849 297.859283,154.664093 296.044708,154.663803 
	C258.387024,154.657898 220.729340,154.655045 183.071655,154.643524 
	C174.784225,154.640991 173.182983,156.222336 173.182602,164.556458 
	C173.179947,220.876373 173.181381,277.196289 173.181488,333.516205 
	C173.181488,335.458069 173.181473,337.399933 173.181473,339.827332 
	C159.745163,339.827332 146.960800,339.855865 134.176880,339.791382 
	C132.568970,339.783295 130.963531,339.285339 129.428543,338.608154 
	C129.497147,297.571869 129.515427,256.941772 129.484619,216.311752 
	C129.458481,181.848404 129.375671,147.385086 129.478851,112.617996 
	C129.732559,111.865952 129.825333,111.417664 129.918106,110.969383 
	C131.327744,110.937141 132.737366,110.904892 134.824249,110.901550 
	C135.673843,110.873840 135.846207,110.817215 136.018570,110.760605 
z"/>
<path fill="#3873A9" opacity="1.000000" stroke="none" 
	d="
M129.356949,339.014343 
	C130.963531,339.285339 132.568970,339.783295 134.176880,339.791382 
	C146.960800,339.855865 159.745163,339.827332 173.181473,339.827332 
	C173.181473,337.399933 173.181488,335.458069 173.181488,333.516205 
	C173.181381,277.196289 173.179947,220.876373 173.182602,164.556458 
	C173.182983,156.222336 174.784225,154.640991 183.071655,154.643524 
	C220.729340,154.655045 258.387024,154.657898 296.044708,154.663803 
	C297.859283,154.664093 299.673889,154.663849 302.130707,154.663849 
	C302.130707,140.162338 302.130707,126.048492 302.089111,111.468376 
	C302.810974,111.728401 304.238586,112.454536 304.238770,113.181007 
	C304.241547,125.156876 304.044525,137.132599 303.936249,149.108765 
	C303.878326,155.511368 303.562592,155.927048 297.165100,155.930435 
	C259.693909,155.950348 222.222733,155.938202 184.751541,155.942963 
	C175.919861,155.944077 174.895157,156.952698 174.894943,165.581375 
	C174.893616,221.205276 174.894791,276.829193 174.893936,332.453094 
	C174.893799,341.982544 174.239227,342.080322 164.929993,341.318634 
	C157.188766,340.685272 149.327301,341.688141 141.533112,341.468597 
	C137.317245,341.349854 133.130737,340.189362 129.006348,339.174744 
	C129.081726,338.850616 129.356949,339.014343 129.356949,339.014343 
z"/>
<path fill="#0F508E" opacity="1.000000" stroke="none" 
	d="
M129.428543,338.608154 
	C129.356949,339.014343 129.081726,338.850616 128.920441,338.840210 
	C128.506256,337.225677 128.032990,335.621735 128.032196,334.017487 
	C127.995705,261.390381 127.998604,188.763229 128.015106,116.136086 
	C128.015442,114.651535 128.230621,113.167023 128.594879,111.595230 
	C129.002121,111.979225 129.160034,112.450493 129.317932,112.921761 
	C129.375671,147.385086 129.458481,181.848404 129.484619,216.311752 
	C129.515427,256.941772 129.497147,297.571869 129.428543,338.608154 
z"/>
<path fill="#D7E5F0" opacity="1.000000" stroke="none" 
	d="
M316.019135,119.006470 
	C317.081055,119.003418 318.142975,119.000374 319.603180,118.997742 
	C319.708618,122.727730 319.415771,126.457291 318.729065,130.584732 
	C317.275848,130.327591 316.216492,129.672562 315.157166,129.017548 
	C315.104797,126.306305 315.052460,123.595070 315.264679,120.316544 
	C315.750336,119.539803 315.913635,119.292206 316.019135,119.006470 
z"/>
<path fill="#C2D3E6" opacity="1.000000" stroke="none" 
	d="
M315.059418,129.410187 
	C316.216492,129.672562 317.275848,130.327591 318.666992,130.993011 
	C317.978394,131.671143 316.958008,132.338852 315.583496,133.009949 
	C315.140137,131.943161 315.050903,130.873001 315.059418,129.410187 
z"/>
<path fill="#3873A9" opacity="1.000000" stroke="none" 
	d="
M129.478851,112.617996 
	C129.160034,112.450493 129.002121,111.979225 128.826813,111.254272 
	C128.993698,110.976807 129.177994,110.953018 129.640198,110.949303 
	C129.825333,111.417664 129.732559,111.865952 129.478851,112.617996 
z"/>
<path fill="#3873A9" opacity="1.000000" stroke="none" 
	d="
M301.018585,110.539001 
	C300.855988,110.797058 300.674164,110.852341 300.219452,110.825142 
	C300.297485,110.607178 300.648407,110.471703 301.018585,110.539001 
z"/>
<path fill="#9CBFDF" opacity="1.000000" stroke="none" 
	d="
M367.152588,155.251648 
	C367.555634,155.177078 368.116119,155.353745 368.822174,155.801453 
	C368.415161,155.882614 367.862579,155.692749 367.152588,155.251648 
z"/>
<path fill="#82ADCF" opacity="1.000000" stroke="none" 
	d="
M370.973633,159.300446 
	C371.145905,159.279648 371.313568,159.544678 371.368774,159.945160 
	C371.160492,159.915817 371.064728,159.751053 370.973633,159.300446 
z"/>
<path fill="#3873A9" opacity="1.000000" stroke="none" 
	d="
M135.917831,110.624847 
	C135.846207,110.817215 135.673843,110.873840 135.243347,110.844330 
	C135.262482,110.668488 135.539795,110.578789 135.917831,110.624847 
z"/>
<path fill="#C2D3E6" opacity="1.000000" stroke="none" 
	d="
M315.799255,118.999222 
	C315.913635,119.292206 315.750336,119.539803 315.341125,119.870544 
	C315.100861,119.824966 315.048737,119.658127 315.068024,119.238899 
	C315.139435,118.986511 315.579376,118.991974 315.799255,118.999222 
z"/>
<path fill="#000000" opacity="1.000000" stroke="none" 
	d="
M345.483704,143.127106 
	C344.752075,142.198746 344.365753,141.440186 343.982971,139.949310 
	C344.045380,137.835526 344.104218,136.454041 344.510590,134.890701 
	C345.300049,134.145874 345.893616,133.031113 346.160767,133.104507 
	C349.133575,133.921127 352.055939,134.921524 355.373291,136.045898 
	C360.151978,137.188843 364.549286,138.158218 368.946594,139.127609 
	C369.292480,139.863098 369.638397,140.598572 369.702393,141.708344 
	C369.114563,142.270203 368.964111,142.543381 368.969055,142.902130 
	C367.718445,144.598404 366.755524,147.358719 365.162750,147.789368 
	C360.574310,149.029968 357.808502,145.910522 355.362000,142.193146 
	C351.949707,142.543472 348.889343,142.920181 345.483704,143.127106 
z"/>
<path fill="#D7E4EF" opacity="1.000000" stroke="none" 
	d="
M391.543182,141.997818 
	C391.781708,145.745895 391.559143,149.496338 390.714172,153.623093 
	C387.060669,153.993881 384.029633,153.988342 380.998566,153.982803 
	C380.875427,153.683945 380.686157,153.435486 380.219910,152.661255 
	C380.006439,148.723190 380.003815,145.361298 380.001190,141.999390 
	C380.001190,141.999390 380.000000,142.000000 379.999390,142.000305 
	C383.693207,142.000473 387.387665,142.000320 391.543182,141.997818 
z"/>
<path fill="#C9D6E1" opacity="1.000000" stroke="none" 
	d="
M380.836365,154.356583 
	C384.029633,153.988342 387.060669,153.993881 390.545868,153.999695 
	C391.303436,154.124588 391.555695,154.316452 391.876007,154.783539 
	C391.996338,156.308212 392.000458,157.624954 391.998169,158.941681 
	C391.988281,164.600479 390.391479,166.156540 384.842682,165.977005 
	C379.687286,165.810165 379.898773,162.129181 380.034729,158.576309 
	C380.084015,157.288055 380.451752,156.011993 380.836365,154.356583 
z"/>
<path fill="#CAD6E2" opacity="1.000000" stroke="none" 
	d="
M379.543884,142.001648 
	C380.003815,145.361298 380.006439,148.723190 380.015015,152.543304 
	C370.331055,156.134232 369.035461,155.058685 368.975006,143.369354 
	C368.964111,142.543381 369.114563,142.270203 369.656525,142.023972 
	C372.957275,141.978180 376.021942,141.991043 379.543884,142.001648 
z"/>
<path fill="#D8E4F0" opacity="1.000000" stroke="none" 
	d="
M354.625916,107.834785 
	C355.000854,110.700699 354.998077,113.400597 354.766052,116.730293 
	C354.357117,117.901344 354.177460,118.442604 353.544128,118.986618 
	C350.062958,118.988945 347.035370,118.988525 343.976837,118.698090 
	C343.636475,117.939194 343.327087,117.470314 343.015717,116.547234 
	C343.011597,113.061920 343.009460,110.030807 343.007324,106.999695 
	C346.754272,107.222717 350.501221,107.445747 354.625916,107.834785 
z"/>
<path fill="#C9D5E1" opacity="1.000000" stroke="none" 
	d="
M344.163086,135.072571 
	C344.104218,136.454041 344.045380,137.835526 343.906189,139.625000 
	C340.514130,140.689377 337.202423,141.345734 333.445343,142.001663 
	C332.872620,141.693207 332.676239,141.438339 332.198212,141.117310 
	C331.985992,137.968750 331.986389,134.939499 331.983490,131.456543 
	C332.289886,130.882294 332.548920,130.692581 333.334595,130.221680 
	C336.943207,130.008392 339.974457,130.007126 343.002625,130.002777 
	C342.999542,129.999680 342.994537,129.994522 342.997986,130.390442 
	C343.388672,132.215103 343.775879,133.643845 344.163086,135.072571 
z"/>
<path fill="#C9D5E1" opacity="1.000000" stroke="none" 
	d="
M342.545441,107.000290 
	C343.009460,110.030807 343.011597,113.061920 342.782288,116.725037 
	C342.362701,117.900284 342.174591,118.443520 341.533264,118.987404 
	C338.054169,118.986206 335.028290,118.984352 332.002441,118.982506 
	C332.001831,118.331146 332.001251,117.679794 332.000641,117.028435 
	C331.991516,107.007828 331.991516,107.007828 342.545441,107.000290 
z"/>
<path fill="#D8E4F0" opacity="1.000000" stroke="none" 
	d="
M332.001770,119.431229 
	C335.028290,118.984352 338.054169,118.986206 341.789124,118.992493 
	C342.668793,118.998260 342.839294,118.999588 343.009583,119.458977 
	C343.008148,123.279976 343.006958,126.642921 343.005737,130.005859 
	C339.974457,130.007126 336.943207,130.008392 333.458191,130.012665 
	C332.669983,126.637108 332.335571,123.258522 332.001770,119.431229 
z"/>
<path fill="#D2DEEA" opacity="1.000000" stroke="none" 
	d="
M353.997772,118.983856 
	C354.177460,118.442604 354.357117,117.901344 354.765076,117.180298 
	C355.309387,117.468987 355.625427,117.937477 355.972046,118.697739 
	C355.878632,119.297508 355.685791,119.553658 355.002197,119.757385 
	C354.316864,119.551399 354.122681,119.293747 353.997772,118.983856 
z"/>
<path fill="#CAD6E2" opacity="1.000000" stroke="none" 
	d="
M368.958252,138.669525 
	C364.549286,138.158218 360.151978,137.188843 355.379700,135.626633 
	C355.004669,133.353897 355.004639,131.673981 355.002502,129.996872 
	C355.000397,129.999664 354.994263,130.004623 354.994263,130.004623 
	C359.354279,130.003204 363.714264,130.001785 368.539490,129.997833 
	C368.993103,132.734024 368.981506,135.472733 368.958252,138.669525 
z"/>
<path fill="#C9D5E1" opacity="1.000000" stroke="none" 
	d="
M353.544128,118.986618 
	C354.122681,119.293747 354.316864,119.551399 354.792023,119.878571 
	C355.001343,123.032005 354.998993,126.063690 354.995453,129.550003 
	C354.994263,130.004623 355.000397,129.999664 354.541321,129.998993 
	C350.386353,129.997040 346.690460,129.995773 342.994537,129.994507 
	C342.994537,129.994522 342.999542,129.999680 343.002655,130.002777 
	C343.006958,126.642921 343.008148,123.279976 343.259033,119.457840 
	C343.508728,118.998650 344.007812,118.988098 344.007812,118.988098 
	C347.035370,118.988525 350.062958,118.988945 353.544128,118.986618 
z"/>
<path fill="#195FA3" opacity="1.000000" stroke="none" 
	d="
M210.958298,344.859497 
	C213.480270,343.844025 215.775269,342.518066 218.075058,342.509735 
	C253.906006,342.379883 289.737549,342.410614 325.568970,342.431793 
	C331.202759,342.435120 333.909912,344.517609 333.958374,348.681824 
	C334.006866,352.848602 331.223328,355.061432 325.685730,355.064453 
	C289.687653,355.083923 253.689545,355.092255 217.691498,355.058746 
	C210.799484,355.052307 208.415024,351.562073 210.958298,344.859497 
z"/>
<path fill="#0F58A0" opacity="1.000000" stroke="none" 
	d="
M250.999969,311.120056 
	C240.008789,311.121674 229.517288,311.165710 219.026718,311.086975 
	C217.066971,311.072296 214.590057,311.199585 213.283813,310.126678 
	C211.616302,308.756989 209.871460,306.136597 210.053513,304.236725 
	C210.236954,302.322083 212.480011,300.256561 214.320801,298.976166 
	C215.472519,298.175049 217.548553,298.643921 219.209869,298.643066 
	C254.513550,298.624695 289.817230,298.620361 325.120911,298.614990 
	C326.119873,298.614838 327.125641,298.561584 328.116577,298.655823 
	C331.588409,298.986084 333.666382,300.890839 333.882996,304.387878 
	C334.117249,308.170135 331.976532,310.460754 328.420349,310.913727 
	C325.139282,311.331635 321.772736,311.113129 318.443787,311.114716 
	C296.129181,311.125488 273.814575,311.120148 250.999969,311.120056 
z"/>
<path fill="#0C59A2" opacity="1.000000" stroke="none" 
	d="
M333.035797,216.115570 
	C333.035797,216.115570 333.051331,216.582703 332.738495,217.047943 
	C332.327484,218.400330 332.229309,219.287491 332.131165,220.174637 
	C332.131134,220.174637 332.106049,220.082764 331.899170,220.189056 
	C331.488129,220.591980 331.283936,220.888580 331.079742,221.185181 
	C331.079742,221.185181 331.068756,221.061417 330.850647,221.200302 
	C330.391083,221.671402 330.149689,222.003632 329.908264,222.335846 
	C328.475433,222.595459 327.042694,223.080872 325.609711,223.081726 
	C288.945709,223.103241 252.281647,223.074127 215.112640,222.529236 
	C213.670776,221.719696 212.733871,221.434769 211.796951,221.149841 
	C211.796951,221.149841 211.899933,221.107224 211.921448,220.710968 
	C212.250000,217.468689 212.557053,214.622681 212.864105,211.776657 
	C212.864120,211.776657 212.899414,211.857773 213.338211,211.900970 
	C252.652237,211.926331 291.527466,211.908478 330.402679,211.890625 
	C330.402679,211.890625 330.716644,211.769791 330.990845,212.099548 
	C331.568237,212.597488 331.871490,212.765671 332.174713,212.933853 
	C332.174713,212.933853 332.081848,212.932358 332.089783,213.206985 
	C332.439728,213.979782 332.781708,214.477966 333.123688,214.976151 
	C333.123688,214.976151 333.047852,214.971848 333.036194,215.239304 
	C333.028320,215.709702 333.032074,215.912643 333.035797,216.115570 
z"/>
<path fill="#4477A8" opacity="1.000000" stroke="none" 
	d="
M322.756042,267.271179 
	C287.992676,267.270294 253.697021,267.270233 219.401367,267.268005 
	C218.070038,267.267944 216.725891,267.361481 215.409821,267.214050 
	C211.704895,266.799164 209.631439,264.503876 209.495224,260.941254 
	C209.355316,257.282532 211.661179,255.155060 215.108322,254.360687 
	C216.219986,254.104492 217.428543,254.244278 218.592773,254.244232 
	C254.053802,254.242859 289.514832,254.245850 324.975861,254.253067 
	C326.140350,254.253311 327.705658,253.833954 328.394287,254.420334 
	C330.472748,256.190155 333.195038,258.086182 333.849335,260.438385 
	C334.818726,263.923309 332.273193,266.375214 328.692902,267.049896 
	C326.918915,267.384186 325.049835,267.213715 322.756042,267.271179 
M331.912567,262.059326 
	C332.719879,256.830383 329.664520,255.820404 325.357361,255.827774 
	C298.358398,255.874039 271.359314,255.852142 244.360291,255.853897 
	C235.527267,255.854462 226.693970,255.900406 217.861389,255.839371 
	C214.474091,255.815964 211.551620,256.961609 211.215698,260.432587 
	C210.854507,264.164490 214.044250,265.296295 217.166306,265.869568 
	C217.977890,266.018555 218.826538,266.000702 219.658157,266.000793 
	C254.490234,266.005035 289.322662,266.067657 324.153595,265.863556 
	C326.638031,265.848969 329.110962,263.872375 331.912567,262.059326 
z"/>
<path fill="#15538E" opacity="1.000000" stroke="none" 
	d="
M330.110413,211.534180 
	C291.527466,211.908478 252.652237,211.926331 213.293976,211.901642 
	C214.178391,211.458633 215.545242,210.710678 216.913345,210.708405 
	C253.576080,210.647522 290.238953,210.659286 326.901764,210.687408 
	C327.874023,210.688156 328.846008,211.007156 330.110413,211.534180 
z"/>
<path fill="#15538E" opacity="1.000000" stroke="none" 
	d="
M212.474823,211.829773 
	C212.557053,214.622681 212.250000,217.468689 211.896759,220.760925 
	C208.488266,218.012360 208.664719,214.906754 212.474823,211.829773 
z"/>
<path fill="#15538E" opacity="1.000000" stroke="none" 
	d="
M332.470306,220.014954 
	C332.229309,219.287491 332.327484,218.400330 332.659912,217.268005 
	C332.865936,217.966980 332.837708,218.911133 332.470306,220.014954 
z"/>
<path fill="#15538E" opacity="1.000000" stroke="none" 
	d="
M211.968353,221.475647 
	C212.733871,221.434769 213.670776,221.719696 214.719788,222.377686 
	C213.934509,222.434296 213.037140,222.117859 211.968353,221.475647 
z"/>
<path fill="#15538E" opacity="1.000000" stroke="none" 
	d="
M333.116394,214.650909 
	C332.781708,214.477966 332.439728,213.979782 332.100464,213.161804 
	C332.438477,213.336533 332.773804,213.831100 333.116394,214.650909 
z"/>
<path fill="#15538E" opacity="1.000000" stroke="none" 
	d="
M330.236206,222.275818 
	C330.149689,222.003632 330.391083,221.671402 330.912689,221.203461 
	C330.983276,221.450409 330.773712,221.833099 330.236206,222.275818 
z"/>
<path fill="#15538E" opacity="1.000000" stroke="none" 
	d="
M331.350891,221.101746 
	C331.283936,220.888580 331.488129,220.591980 331.946777,220.189056 
	C332.008209,220.394608 331.815094,220.706467 331.350891,221.101746 
z"/>
<path fill="#15538E" opacity="1.000000" stroke="none" 
	d="
M333.262878,216.007690 
	C333.032074,215.912643 333.028320,215.709702 333.044861,215.202332 
	C333.206787,215.231857 333.348389,215.565842 333.262878,216.007690 
z"/>
<path fill="#15538E" opacity="1.000000" stroke="none" 
	d="
M332.087097,212.648010 
	C331.871490,212.765671 331.568237,212.597488 331.115540,212.212448 
	C331.310516,212.117783 331.654999,212.239975 332.087097,212.648010 
z"/>
<path fill="#D8E3EF" opacity="1.000000" stroke="none" 
	d="
M342.997986,130.390442 
	C346.690460,129.995773 350.386353,129.997040 354.543457,129.996185 
	C355.004639,131.673981 355.004669,133.353897 354.998291,135.453064 
	C352.055939,134.921524 349.133575,133.921127 346.160767,133.104507 
	C345.893616,133.031113 345.300049,134.145874 344.510590,134.890701 
	C343.775879,133.643845 343.388672,132.215103 342.997986,130.390442 
z"/>
<path fill="#D2DEEA" opacity="1.000000" stroke="none" 
	d="
M343.976837,118.698090 
	C344.007812,118.988098 343.508728,118.998650 343.259247,118.999786 
	C342.839294,118.999588 342.668793,118.998260 342.242371,118.991844 
	C342.174591,118.443520 342.362701,117.900284 342.784271,117.179245 
	C343.327087,117.470314 343.636475,117.939194 343.976837,118.698090 
z"/>
<path fill="#0E59A2" opacity="1.000000" stroke="none" 
	d="
M331.750916,262.433716 
	C329.110962,263.872375 326.638031,265.848969 324.153595,265.863556 
	C289.322662,266.067657 254.490234,266.005035 219.658157,266.000793 
	C218.826538,266.000702 217.977890,266.018555 217.166306,265.869568 
	C214.044250,265.296295 210.854507,264.164490 211.215698,260.432587 
	C211.551620,256.961609 214.474091,255.815964 217.861389,255.839371 
	C226.693970,255.900406 235.527267,255.854462 244.360291,255.853897 
	C271.359314,255.852142 298.358398,255.874039 325.357361,255.827774 
	C329.664520,255.820404 332.719879,256.830383 331.750916,262.433716 
z"/>
</svg>